HIERARCHY
ROOT Hips
{
	OFFSET 0.00000 0.00000 0.00000
	CHANNELS 6 Xposition Yposition Zposition Zrotation Yrotation Xrotation 
	JOINT LHipJoint
	{
		OFFSET 0 0 0
		CHANNELS 3 Zrotation Yrotation Xrotation
		JOINT LeftUpLeg
		{
			OFFSET 1.28366 -1.58472 0.87544
			CHANNELS 3 Zrotation Yrotation Xrotation
			JOINT LeftLeg
			{
				OFFSET 2.18587 -6.00562 0.00000
				CHANNELS 3 Zrotation Yrotation Xrotation
				JOINT LeftFoot
				{
					OFFSET 2.39085 -6.56880 0.00000
					CHANNELS 3 Zrotation Yrotation Xrotation
					JOINT LeftToeBase
					{
						OFFSET 0.12003 -0.32979 2.03101
						CHANNELS 3 Zrotation Yrotation Xrotation
						End Site
						{
							OFFSET 0.00000 -0.00000 1.04074
						}
					}
				}
			}
		}
	}
	JOINT RHipJoint
	{
		OFFSET 0 0 0
		CHANNELS 3 Zrotation Yrotation Xrotation
		JOINT RightUpLeg
		{
			OFFSET -1.21795 -1.58472 0.87544
			CHANNELS 3 Zrotation Yrotation Xrotation
			JOINT RightLeg
			{
				OFFSET -2.22714 -6.11902 0.00000
				CHANNELS 3 Zrotation Yrotation Xrotation
				JOINT RightFoot
				{
					OFFSET -2.40306 -6.60235 0.00000
					CHANNELS 3 Zrotation Yrotation Xrotation
					JOINT RightToeBase
					{
						OFFSET -0.15519 -0.42640 1.91430
						CHANNELS 3 Zrotation Yrotation Xrotation
						End Site
						{
							OFFSET -0.00000 -0.00000 0.99082
						}
					}
				}
			}
		}
	}
	JOINT LowerBack
	{
		OFFSET 0 0 0
		CHANNELS 3 Zrotation Yrotation Xrotation
		JOINT Spine
		{
			OFFSET 0.01180 1.76430 -0.06387
			CHANNELS 3 Zrotation Yrotation Xrotation
			JOINT Spine1
			{
				OFFSET -0.00388 1.74651 0.09536
				CHANNELS 3 Zrotation Yrotation Xrotation
				JOINT Neck
				{
					OFFSET 0 0 0
					CHANNELS 3 Zrotation Yrotation Xrotation
					JOINT Neck1
					{
						OFFSET 0.04111 1.46174 0.14397
						CHANNELS 3 Zrotation Yrotation Xrotation
						JOINT Head
						{
							OFFSET 0.00502 1.44580 -0.31711
							CHANNELS 3 Zrotation Yrotation Xrotation
							End Site
							{
								OFFSET -0.00395 1.49251 -0.12327
							}
						}
					}
				}
				JOINT LeftShoulder
				{
					OFFSET 0 0 0
					CHANNELS 3 Zrotation Yrotation Xrotation
					JOINT LeftArm
					{
						OFFSET 2.70917 1.34870 -0.15417
						CHANNELS 3 Zrotation Yrotation Xrotation
						JOINT LeftForeArm
						{
							OFFSET 4.46610 -0.00000 -0.00000
							CHANNELS 3 Zrotation Yrotation Xrotation
							JOINT LeftHand
							{
								OFFSET 3.41414 -0.00000 0.00000
								CHANNELS 3 Zrotation Yrotation Xrotation
								JOINT LeftFingerBase
								{
									OFFSET 0 0 0
									CHANNELS 3 Zrotation Yrotation Xrotation
									JOINT LeftHandIndex1
									{
										OFFSET 0.32830 -0.00000 0.00000
										CHANNELS 3 Zrotation Yrotation Xrotation
										End Site
										{
											OFFSET 0.26468 -0.00000 0.00000
										}
									}
								}
								JOINT LThumb
								{
									OFFSET 0 0 0
									CHANNELS 3 Zrotation Yrotation Xrotation
									End Site
									{
										OFFSET 0.26872 -0.00000 0.26872
									}
								}
							}
						}
					}
				}
				JOINT RightShoulder
				{
					OFFSET 0 0 0
					CHANNELS 3 Zrotation Yrotation Xrotation
					JOINT RightArm
					{
						OFFSET -3.06316 1.13725 -0.10883
						CHANNELS 3 Zrotation Yrotation Xrotation
						JOINT RightForeArm
						{
							OFFSET -4.40431 -0.00000 0.00000
							CHANNELS 3 Zrotation Yrotation Xrotation
							JOINT RightHand
							{
								OFFSET -3.04688 -0.00000 0.00000
								CHANNELS 3 Zrotation Yrotation Xrotation
								JOINT RightFingerBase
								{
									OFFSET 0 0 0
									CHANNELS 3 Zrotation Yrotation Xrotation
									JOINT RightHandIndex1
									{
										OFFSET -0.50049 -0.00000 0.00000
										CHANNELS 3 Zrotation Yrotation Xrotation
										End Site
										{
											OFFSET -0.40351 -0.00000 0.00000
										}
									}
								}
								JOINT RThumb
								{
									OFFSET 0 0 0
									CHANNELS 3 Zrotation Yrotation Xrotation
									End Site
									{
										OFFSET -0.40967 -0.00000 0.40967
									}
								}
							}
						}
					}
				}
			}
		}
	}
}
MOTION
Frames: 12
Frame Time: .0083333
1.5271 12.906 12.0359 0 0 0 0 0 0 -21 0 0 0 0 0 0 0 0 0 0 0 0 0 0 21 0 0 0 0 0 0 0 0 0 0 0 0 0 0 0 0 0 0 0 0 0 0 -16 0 0 21 0 0 11 0 0 0 -8 0 0 0 0 0 0 0 0 0 0 0 0 0 0 0 0 0 0 0 0 8 0 0 0 0 0 0 0 0 0 0 0 0 0 0 0 0 0
1.5271 12.9060 12.0359 -176.3820 -0.5134 -175.2720 0.0000 0.0000 0.0000 -14.5696 22.7023 -49.8880 16.9858 19.7808 81.1560 4.4204 -5.1480 -38.8616 0.0144 0.7735 2.1258 0.0000 0.0000 0.0000 20.5766 -27.2574 -56.8336 -17.1718 -19.8071 81.7052 -3.2180 1.1043 -33.7320 -0.1362 -2.3786 6.5531 0.6521 2.0584 4.1327 -0.1351 2.5611 -6.0796 -0.7867 1.0974 -8.6774 1.1141 1.2416 -18.5664 6.7203 -0.8813 21.5128 2.0167 0.2495 9.9656 0.0000 0.0000 0.0000 -0.7597 3.3637 30.6205 20.5780 -31.3325 -5.8290 -0.0000 0.0000 -13.2628 58.3988 -8.3946 -13.3489 -7.1250 0.0000 -0.0000 21.2471 14.8997 -16.2461 0.0000 0.0000 0.0000 10.5780 -8.3754 33.2063 -21.1543 32.0080 -6.1315 0.0000 -0.0000 -7.0922 -60.9495 25.2641 -37.5370 7.1250 -0.0000 -0.0000 -17.6366 12.4177 -21.9557
1.5285 12.9072 12.0332 -176.4050 -0.4818 -175.2830 0.0000 0.0000 0.0000 -14.5802 22.7480 -49.8564 16.9772 19.7795 81.1307 4.4201 -5.1598 -38.8584 0.0138 0.7575 2.0819 0.0000 0.0000 0.0000 20.5226 -27.2384 -56.7989 -17.1776 -19.8079 81.7225 -3.2167 1.2466 -33.6866 -0.1515 -2.5085 6.9133 0.6582 2.0591 4.1273 -0.1279 2.5629 -6.0788 -0.7825 1.0981 -8.6734 1.1143 1.2876 -18.5699 6.7526 -0.8229 21.4942 2.0359 0.2805 9.9578 0.0000 0.0000 0.0000 -0.7941 3.4072 30.5237 20.5658 -31.3180 -5.8226 -0.0000 0.0000 -13.2837 58.4677 -8.3557 -13.3243 -7.1250 0.0000 -0.0000 21.3003 14.9402 -16.2733 0.0000 0.0000 0.0000 10.5025 -8.3434 33.1788 -21.1442 31.9963 -6.1262 0.0000 -0.0000 -7.1946 -61.0692 25.2155 -37.6236 7.1250 -0.0000 -0.0000 -17.7149 12.4456 -22.0687
1.5303 12.9081 12.0300 -176.3980 -0.4647 -175.3110 0.0000 0.0000 0.0000 -14.5489 22.7717 -49.7947 16.9686 19.7782 81.1051 4.4186 -5.1466 -38.8538 0.0134 0.7482 2.0563 0.0000 0.0000 0.0000 20.4906 -27.2408 -56.7422 -17.1797 -19.8082 81.7287 -3.2077 1.3197 -33.6192 -0.1547 -2.5344 6.9849 0.6993 2.0700 4.1248 -0.1239 2.5824 -6.0655 -0.8031 1.1059 -8.6554 1.1568 1.3056 -18.5631 6.7478 -0.8029 21.4455 2.0291 0.2927 9.9387 -0.0000 0.0000 0.0000 -0.8005 3.3902 30.4481 20.5570 -31.3076 -5.8180 -0.0000 0.0000 -13.2648 58.4690 -8.2007 -13.0879 -7.1250 0.0000 -0.0000 21.3519 15.2026 -16.1884 -0.0000 0.0000 0.0000 10.4662 -8.3463 33.0953 -21.1350 31.9856 -6.1213 0.0000 -0.0000 -7.2598 -61.0475 25.1961 -37.5789 7.1250 -0.0000 -0.0000 -17.7095 12.4035 -22.0516
1.5319 12.9104 12.0272 -176.4050 -0.4615 -175.3190 0.0000 0.0000 0.0000 -14.5425 22.7914 -49.7628 16.9592 19.7769 81.0775 4.4164 -5.1718 -38.8392 0.0150 0.7896 2.1702 0.0000 0.0000 0.0000 20.4457 -27.2309 -56.7002 -17.1803 -19.8083 81.7305 -3.1991 1.4286 -33.5438 -0.1606 -2.5821 7.1173 0.7336 2.0692 4.1175 -0.1209 2.5842 -6.0650 -0.8189 1.1047 -8.6490 1.1623 1.3137 -18.5278 6.7495 -0.7842 21.3772 2.0298 0.3013 9.9071 0.0000 0.0000 0.0000 -0.8016 3.3818 30.4143 20.5406 -31.2881 -5.8095 -0.0000 0.0000 -13.2794 58.4915 -8.1479 -13.0182 -7.1250 0.0000 -0.0000 21.3825 15.2840 -16.1747 0.0000 0.0000 0.0000 10.4217 -8.3200 32.9890 -21.1663 32.0219 -6.1379 0.0000 -0.0000 -7.4159 -60.8517 25.1349 -37.2934 7.1250 -0.0000 -0.0000 -17.6251 12.1731 -21.8836
1.5328 12.9117 12.0241 -176.4120 -0.4603 -175.3180 0.0000 0.0000 0.0000 -14.5410 22.7944 -49.7366 16.9519 19.7758 81.0558 4.4124 -5.1932 -38.8173 0.0153 0.7997 2.1979 0.0000 0.0000 0.0000 20.4157 -27.2513 -56.6765 -17.1817 -19.8085 81.7346 -3.1897 1.4302 -33.4927 -0.1467 -2.4686 6.8026 0.7615 2.0689 4.1058 -0.1074 2.5860 -6.0713 -0.8201 1.1038 -8.6484 1.1491 1.2904 -18.4956 6.7117 -0.7962 21.3404 2.0161 0.2901 9.8879 0.0000 -0.0000 0.0000 -0.8342 3.4049 30.3749 20.5600 -31.3111 -5.8196 -0.0000 0.0000 -13.2636 58.5665 -8.0458 -12.8983 -7.1250 0.0000 -0.0000 21.4603 15.4306 -16.1697 0.0000 -0.0000 0.0000 10.3505 -8.2623 32.8677 -21.1516 32.0049 -6.1301 0.0000 -0.0000 -7.4031 -60.8969 25.0920 -37.3005 7.1250 -0.0000 -0.0000 -17.6622 12.1511 -21.9288
1.5341 12.9132 12.0212 -176.4180 -0.4587 -175.3220 0.0000 0.0000 0.0000 -14.5351 22.8042 -49.7084 16.9448 19.7747 81.0349 4.4087 -5.2026 -38.7985 0.0157 0.8081 2.2208 0.0000 0.0000 0.0000 20.3831 -27.2608 -56.6480 -17.1834 -19.8087 81.7395 -3.1822 1.5007 -33.4339 -0.1470 -2.4711 6.8094 0.7921 2.0689 4.0979 -0.0979 2.5887 -6.0743 -0.8272 1.1033 -8.6460 1.1452 1.2813 -18.4747 6.6903 -0.7959 21.3024 2.0085 0.2874 9.8701 0.0000 0.0000 0.0000 -0.8577 3.4159 30.3297 20.5693 -31.3221 -5.8244 -0.0000 0.0000 -13.2822 58.5974 -7.9501 -12.7657 -7.1250 0.0000 -0.0000 21.5103 15.5827 -16.1368 0.0000 0.0000 0.0000 10.2898 -8.2214 32.7641 -21.1444 31.9965 -6.1263 0.0000 -0.0000 -7.4393 -60.8645 25.0563 -37.2271 7.1250 -0.0000 -0.0000 -17.6562 12.0795 -21.9039
1.5354 12.9146 12.0183 -176.4250 -0.4623 -175.3210 0.0000 0.0000 0.0000 -14.5319 22.8069 -49.6872 16.9389 19.7738 81.0176 4.4043 -5.2125 -38.7765 0.0160 0.8174 2.2466 0.0000 0.0000 0.0000 20.3535 -27.2745 -56.6283 -17.1858 -19.8091 81.7467 -3.1751 1.5696 -33.3777 -0.1473 -2.4732 6.8153 0.8234 2.0673 4.0879 -0.0881 2.5889 -6.0802 -0.8340 1.1013 -8.6456 1.1328 1.2632 -18.4563 6.6638 -0.8052 21.2718 1.9993 0.2791 9.8558 0.0000 0.0000 0.0000 -0.8842 3.4281 30.2871 20.5831 -31.3385 -5.8316 -0.0000 0.0000 -13.3087 58.6198 -7.8595 -12.6366 -7.1250 0.0000 -0.0000 21.5536 15.7292 -16.1004 0.0000 0.0000 0.0000 10.2274 -8.1754 32.6584 -21.1327 31.9829 -6.1201 0.0000 -0.0000 -7.4578 -60.8216 25.0186 -37.1396 7.1250 -0.0000 -0.0000 -17.6452 11.9970 -21.8698
1.5367 12.9159 12.0154 -176.4330 -0.4703 -175.3160 0.0000 0.0000 0.0000 -14.5324 22.8055 -49.6742 16.9342 19.7731 81.0035 4.3991 -5.2230 -38.7504 0.0164 0.8273 2.2737 0.0000 0.0000 0.0000 20.3268 -27.2904 -56.6174 -17.1890 -19.8095 81.7561 -3.1683 1.6367 -33.3239 -0.1480 -2.4788 6.8309 0.8546 2.0642 4.0761 -0.0787 2.5867 -6.0889 -0.8409 1.0980 -8.6472 1.1113 1.2376 -18.4447 6.6360 -0.8231 21.2529 1.9903 0.2661 9.8470 -0.0000 -0.0000 0.0000 -0.9116 3.4416 30.2480 20.6004 -31.3589 -5.8406 -0.0000 0.0000 -13.3474 58.6239 -7.7666 -12.4948 -7.1250 0.0000 -0.0000 21.5870 15.8864 -16.0495 -0.0000 -0.0000 0.0000 10.1635 -8.1255 32.5565 -21.1166 31.9642 -6.1115 0.0000 -0.0000 -7.4674 -60.7734 24.9803 -37.0457 7.1250 -0.0000 -0.0000 -17.6315 11.9099 -21.8309
1.5381 12.9171 12.0125 -176.4420 -0.4819 -175.3050 0.0000 0.0000 0.0000 -14.5352 22.7989 -49.6683 16.9306 19.7726 80.9929 4.3933 -5.2279 -38.7225 0.0166 0.8315 2.2854 0.0000 0.0000 0.0000 20.3035 -27.3070 -56.6149 -17.1930 -19.8100 81.7677 -3.1622 1.7013 -33.2742 -0.1496 -2.4921 6.8678 0.8848 2.0594 4.0620 -0.0698 2.5819 -6.1002 -0.8475 1.0933 -8.6503 1.0813 1.2066 -18.4407 6.6103 -0.8486 21.2466 1.9827 0.2494 9.8445 0.0000 0.0000 0.0000 -0.9376 3.4565 30.2120 20.6188 -31.3806 -5.8502 -0.0000 0.0000 -13.3949 58.5996 -7.6615 -12.3205 -7.1250 0.0000 -0.0000 21.6075 16.0742 -15.9716 0.0000 0.0000 0.0000 10.0982 -8.0728 32.4653 -21.0960 31.9402 -6.1006 0.0000 -0.0000 -7.4746 -60.7110 24.9367 -36.9303 7.1250 -0.0000 -0.0000 -17.6120 11.8050 -21.7800
1.5397 12.9183 12.0097 -176.4530 -0.4959 -175.2900 0.0000 0.0000 0.0000 -14.5403 22.7897 -49.6710 16.9281 19.7722 80.9854 4.3870 -5.2326 -38.6925 0.0168 0.8379 2.3029 0.0000 0.0000 0.0000 20.2838 -27.3202 -56.6199 -17.1976 -19.8107 81.7813 -3.1566 1.7649 -33.2279 -0.1525 -2.5160 6.9340 0.9136 2.0533 4.0450 -0.0615 2.5748 -6.1138 -0.8536 1.0874 -8.6543 1.0444 1.1722 -18.4439 6.5886 -0.8791 21.2508 1.9772 0.2303 9.8472 -0.0000 -0.0000 0.0000 -0.9609 3.4704 30.1785 20.6349 -31.3997 -5.8585 -0.0000 0.0000 -13.4482 58.5456 -7.5472 -12.1183 -7.1250 0.0000 -0.0000 21.6138 16.2881 -15.8676 -0.0000 -0.0000 0.0000 10.0337 -8.0187 32.3854 -21.0736 31.9141 -6.0888 0.0000 -0.0000 -7.4863 -60.6326 24.8887 -36.7926 7.1250 -0.0000 -0.0000 -17.5854 11.6824 -21.7153
1.5415 12.9193 12.0070 -176.4650 -0.5112 -175.2710 0.0000 0.0000 0.0000 -14.5494 22.7780 -49.6804 16.9260 19.7719 80.9792 4.3807 -5.2339 -38.6627 0.0171 0.8435 2.3183 0.0000 0.0000 0.0000 20.2646 -27.3267 -56.6297 -17.2026 -19.8113 81.7962 -3.1518 1.8233 -33.1869 -0.1559 -2.5440 7.0117 0.9404 2.0460 4.0255 -0.0550 2.5655 -6.1292 -0.8601 1.0804 -8.6589 1.0032 1.1362 -18.4536 6.5721 -0.9133 21.2636 1.9739 0.2099 9.8543 0.0000 0.0000 0.0000 -0.9790 3.4826 30.1473 20.6468 -31.4137 -5.8647 -0.0000 0.0000 -13.5042 58.4745 -7.4327 -11.9085 -7.1250 0.0000 -0.0000 21.6098 16.5075 -15.7518 0.0000 0.0000 0.0000 9.9708 -7.9639 32.3194 -21.0499 31.8865 -6.0763 0.0000 -0.0000 -7.5062 -60.5381 24.8311 -36.6272 7.1250 -0.0000 -0.0000 -17.5533 11.5349 -21.6373
